/* XPM */
static char *e843d0fed75b4c8cccd4a5ffb955da490MDAae43WIcftTyy[] = {
/* columns rows colors chars-per-pixel */
"64 64 94 2 ",
"   c None",
".  c #ED007E",
"X  c #ED027F",
"o  c #ED077F",
"O  c #ED0A7F",
"+  c #ED0581",
"@  c #ED0681",
"#  c #ED0782",
"$  c #EE0882",
"%  c #EE0C84",
"&  c #ED1381",
"*  c #EE1C84",
"=  c #EE1388",
"-  c #EE1488",
";  c #EF1689",
":  c #EF178A",
">  c #EE2085",
",  c #EE2988",
"<  c #EE2C89",
"1  c #EE2E8A",
"2  c #EF318B",
"3  c #EF338B",
"4  c #EF3A8E",
"5  c #F02892",
"6  c #F02993",
"7  c #F02A93",
"8  c #F02B94",
"9  c #F13699",
"0  c #F1379A",
"q  c #F13F9E",
"w  c #F2409E",
"e  c #F1579B",
"r  c #F15C9E",
"t  c #F248A2",
"y  c #F352A7",
"u  c #F353A8",
"i  c #F35AAC",
"p  c #F161A0",
"a  c #F162A1",
"s  c #F163A2",
"d  c #F461AF",
"f  c #F26FA8",
"g  c #F271A9",
"h  c #F37BAE",
"j  c #F37CAE",
"k  c #F466B2",
"l  c #F467B2",
"z  c #F46AB4",
"x  c #F56BB4",
"c  c #F571B7",
"v  c #F592BB",
"b  c #F593BB",
"n  c #F593BC",
"m  c #F594BC",
"M  c #F59AC0",
"N  c #F69FC2",
"B  c #F89ACC",
"V  c #F89BCC",
"C  c #F6A6C7",
"Z  c #F7AAC9",
"A  c #F7AFCC",
"S  c #F7B1CD",
"D  c #F8B5D0",
"F  c #F8B8D2",
"G  c #F8BBD3",
"H  c #F9C6DB",
"J  c #F9C7DB",
"K  c #FACEDF",
"L  c #FCCFE7",
"P  c #FAD1E2",
"I  c #FCD0E7",
"U  c #FBD6E5",
"Y  c #FBD9E7",
"T  c #FBDAE7",
"R  c #FCD6EA",
"E  c #FCD8EB",
"W  c #FBDCE8",
"Q  c #FCDEE9",
"!  c #FCD9EC",
"~  c #FDDDEE",
"^  c #FDDEEE",
"/  c #FDDFEF",
"(  c #FCE3ED",
")  c #FDE9F1",
"_  c #FDEEF4",
"`  c #FEEDF6",
"'  c #FDF0F5",
"]  c #FEF0F7",
"[  c #FEF1F8",
"{  c #FEFAFC",
"}  c #FFFBFC",
"|  c #FFFCFD",
" . c #FFFEFE",
".. c white",
/* pixels */
"                                                                                                                                ",
"                                                                                                                                ",
"                                                                                                                                ",
"                                                                                                                                ",
"                                                                                                                                ",
"                                                                                                                                ",
"                          . . . . . . .                                               . . . . . . .                             ",
"                    . . . .             . . .               . . . .             . . .             . . . .                       ",
"                . . .                         . . .   . . . . . . . . . .   . .                           . .                   ",
"              . .                               . . . . . . . . . . . . . . .                                 . .               ",
"          . .                               . . . . . . . . . . . . . . . . . . .                               . .             ",
"        . .                             . . . . . b C C C C C C m a > . . . . . . . .                               .           ",
"      . .                           . . . . . . . e S ......j N Q ....U 3 . . . . . . . .                             .         ",
"    . .                         . . . . . . . . . . & ......1 . , { ....G . . . . . . . . . .                           .       ",
"    .                       . . . . . . . . . . . . O ......1 . . J ....L . . . . . . . . . . . .                       .       ",
"    .                   . . . . . . . . . . . . . . O ......1 . o ) ....v . . . . . . . . . . . . . .                   . .     ",
"    .               . . . . . . . . . . . . . . . . O ......1 o f ....Y 3 . . . . . . . . . . . . . . . .               . .     ",
"    .             . . . . . . . . . . . . . . . . . O ......G ( ..} j o . . . . . . . . . . . . . . . . . . .           . .     ",
"    .           . . . . . . . . . . . . . . . . . . O ......b ......b . . . . . . . . . . . . . . . . . . . .           . .     ",
"    .           . . . . . . . . . . . . . . . . . . O ......1 M ......a . . . . . . . . . . . . . . . . . . . .         . .     ",
"    .           . . . . . . . . . . . . . . . . . . O ......1 o J ....' 4 . . . . . . . . . . . . . . . . . .           . .     ",
"    .             . . . . . . . . . . . . . . . . . O ......1 . , _ ....Y * . . . . . . . . . . . . . . . .             . .     ",
"    .                 . . . . . . . . . . . . . . . r ......h o . g ......K 1 . . . . . . . . . . . . . .               . .     ",
"    .                     . . . . . . . . . . . . D W W W W W A . . Z W W W Y a . . . . . . . . . . .                   . .     ",
"    .                         . . . . . . . . . . . . . . . . . . . . . . . . . . . . . . . . . .                       . .     ",
"    .                             . . . . . . . . . . . . . . . . . . . . . . . . . . . . . .                           . .     ",
"    .                                 . . . . . . . . . . . . . . . . . . . . . . . . . .                               . .     ",
"    .                                     . . . . . . . . . . . . . . . . . . . . .                                     . .     ",
"    .                                         . . . . . . . . . . . . . . . . .                                         . .     ",
"    .                                             . . . . . . . . . . . . .                                             . .     ",
"    .                 . . . .                         . . . . . . . . .                           . . .                 . .     ",
"    .             . . . . . . . .                       . . . . . . .                         . . . . . . .             . .     ",
"    .           . . . . 7 q 0 . . . .                   . . . . . . .                     . . . . 0 w 8 . . .           . .     ",
"    .           . . . . R ..k % = . . . .               . . . . . .                 . . . . . - % z ..! . . . .         . .     ",
"    .           . . . . d I / ..B . . . . . .             . . . . .             . . . . . . . V ../ I d . . . .         . .     ",
"    .             . . . + 7 z [ : . . . . . . . .             .             . . . . . . . . . - [ z 7 + . . .           . .     ",
"    .               . . . . + u . . . . . . . . . . .                   . . . . . . . . . . . . u $ . . .               . .     ",
"    .                   . . . . . . . . . . . . . . . . . .       . . . . . . . . . . . . . . . . . .                   . .     ",
"    .                       . . . . . . . . . . . . . . . . . . . . . . . . . . . . . . . . . . .                       . .     ",
"    .                           . . . . . . . . . . . . . . . . . . . . . . . . . . . . . . .                           . .     ",
"    .                               . . . . . . . . . . . . . . . . . . . . . . . . . . .                               . .     ",
"    .                                   . . . . . . . . . . . . . . . . . . . . . . .                                   . .     ",
"    .                                       . . . . . . . . . . . . . . . . . . .                                       . .     ",
"    .                                           . . . . . . + . . . . . . . .                                           . .     ",
"    .                   . .                         . . . . / c + . . . .                         . . .                 . .     ",
"    .               . . . . . .                         . . _ ..R - .                         . . . . . . .             . .     ",
"    .           . . . . . . . . . .                     . . _ ! t . .                     . . . . . . . . . .           . .     ",
"    .           . . . . . . . . . . . .                   . i + . .                   . . . . . . . . . . . . .         . .     ",
"    .           . . . . . . . . . . . . . .               . . . . .               . . . . . . . . . . . . . . .         . .     ",
"    .           . . . . . . . . . . . . . . . .             . . .             . . . . . . . . . . . . . . . .           . .     ",
"    .             . . . . . . . . . . . . . . . . .                       . . . . . . . . . . . . . . . . .             . .     ",
"    .                   . . . . . . . . . . . . . . . . .           . . . . . . . . . . . . . . . . . .                 . .     ",
"    .                       . . . . . . . . . . . . . . . . . . . . . . . . . . . . . . . . . . . .                     . .     ",
"    .                           . . . . . . . . . . . . . . . . . . . . . . . . . . . . . . . .                         . .     ",
"    .                         . . . . . . . . . . . . . . . . . . . . . . . . . . . . . . . . .                         . .     ",
"    .                   . . .           . . . . . . . . . . . . . . . . . . . . . . . .         . . .                   . .     ",
"    .               . . .                   . . . . . . . . . . . . . . . . . . . .                   . .               . .     ",
"    .             . .                           . . . . . . . . . . . . . . . .                           . .           . .     ",
"    .         . .                                   . . . . . . . . . . . .                                 . . .       . .     ",
"    .     . .                                           . . . . . . . .                                         . . .   .       ",
"    . . .                                                                                                           . . .       ",
"                                                                                                                                ",
"                                                                                                                                ",
"                                                                                                                                "
};
